<?xml version="1.0" encoding="UTF-8"?>
<!DOCTYPE svg PUBLIC "-//W3C//DTD SVG 1.1//EN" "http://www.w3.org/Graphics/SVG/1.1/DTD/svg11.dtd">
<!-- Creator: CorelDRAW 2019 (64-Bit) -->
<svg xmlns="http://www.w3.org/2000/svg" xml:space="preserve" width="86.136mm" height="60.19mm" version="1.1" style="shape-rendering:geometricPrecision; text-rendering:geometricPrecision; image-rendering:optimizeQuality; fill-rule:evenodd; clip-rule:evenodd"
viewBox="0 0 8613.6 6019"
 xmlns:xlink="http://www.w3.org/1999/xlink"
 xmlns:xodm="http://www.corel.com/coreldraw/odm/2003">
 <defs>
  <style type="text/css">
   <![CDATA[
    .fil2 {fill:white}
    .fil3 {fill:#202427;fill-rule:nonzero}
    .fil1 {fill:#C8EF53;fill-rule:nonzero}
    .fil0 {fill:white;fill-rule:nonzero}
   ]]>
  </style>
 </defs>
 <g id="Capa_x0020_1">
  <metadata id="CorelCorpID_0Corel-Layer"/>
  <g id="_1214078720">
   <g>
    <path class="fil0" d="M458.02 4500.58c114.89,0 215.55,23.29 301.97,69.87 86.43,46.58 152.93,111.27 199.5,194.07 46.58,82.8 69.87,176.99 69.87,282.56 0,104.54 -23.29,198.73 -69.87,282.57 -46.57,83.83 -113.07,149.82 -199.5,197.95 -86.42,48.13 -187.08,72.19 -301.97,72.19l-458 0 0 -1099.21 458 0zm-31.05 791.81c77.63,0 139.21,-21.22 184.75,-63.66 45.54,-42.44 68.31,-102.99 68.31,-181.65 0,-78.66 -22.77,-139.21 -68.31,-181.65 -45.54,-42.43 -107.12,-63.65 -184.75,-63.65l-82.29 0 0 490.61 82.29 0z"/>
    <path id="_1" class="fil0" d="M1122.51 5048.63c0,-108.67 21.99,-205.45 65.98,-290.32 43.99,-84.87 106.87,-150.86 188.63,-197.95 81.77,-47.1 178.03,-70.64 288.78,-70.64 95.22,0 180.35,17.85 255.39,53.56 75.04,35.71 136.11,86.17 183.2,151.37 47.1,65.21 78.41,141.29 93.93,228.23l-363.29 0c-16.56,-36.23 -40.11,-64.43 -70.64,-84.62 -30.54,-20.18 -65.47,-30.27 -104.8,-30.27 -57.96,0 -103.76,21.74 -137.4,65.21 -33.64,43.47 -50.46,101.95 -50.46,175.43 0,73.49 16.82,131.97 50.46,175.44 33.64,43.47 79.44,65.21 137.4,65.21 39.33,0 74.26,-10.09 104.8,-30.27 30.53,-20.19 54.08,-48.39 70.64,-84.62l363.29 0c-15.52,86.94 -46.83,163.02 -93.93,228.23 -47.09,65.2 -108.16,115.66 -183.2,151.37 -75.04,35.71 -160.17,53.56 -255.39,53.56 -110.75,0 -207.01,-23.54 -288.78,-70.64 -81.76,-47.09 -144.64,-113.08 -188.63,-197.95 -43.99,-84.87 -65.98,-181.65 -65.98,-290.33z"/>
    <path class="fil0" d="M2771.36 5610.66c-87.98,0 -167.16,-18.12 -237.54,-54.34 -70.38,-36.23 -125.5,-88.24 -165.35,-156.03 -39.84,-67.8 -59.77,-147.24 -59.77,-238.32 0,-91.08 19.93,-170.52 59.77,-238.32 39.85,-67.79 94.97,-119.8 165.35,-156.03 70.38,-36.22 149.56,-54.34 237.54,-54.34 87.98,0 167.16,18.12 237.54,54.34 70.38,36.23 125.5,88.24 165.35,156.03 39.85,67.8 59.77,147.24 59.77,238.32 0,91.08 -19.92,170.52 -59.77,238.32 -39.85,67.79 -94.97,119.8 -165.35,156.03 -70.38,36.22 -149.56,54.34 -237.54,54.34zm0 -298.09c32.09,0 59,-12.68 80.73,-38.04 21.74,-25.36 32.61,-62.88 32.61,-112.56 0,-49.68 -10.87,-87.2 -32.61,-112.56 -21.73,-25.36 -48.64,-38.04 -80.73,-38.04 -32.09,0 -59,12.68 -80.73,38.04 -21.74,25.36 -32.61,62.88 -32.61,112.56 0,49.68 10.61,87.2 31.83,112.56 21.22,25.36 48.39,38.04 81.51,38.04z"/>
    <path id="_1_0" class="fil0" d="M4511.77 4717.94c111.78,0 198.47,33.64 260.05,100.92 61.58,67.27 92.38,158.36 92.38,273.25l0 507.68 -343.12 0 0 -464.21c0,-37.26 -11.12,-66.5 -33.38,-87.72 -22.25,-21.22 -52.01,-31.83 -89.27,-31.83 -38.29,0 -68.31,10.61 -90.05,31.83 -21.73,21.22 -32.6,50.46 -32.6,87.72l0 464.21 -343.11 0 0 -464.21c0,-37.26 -11.13,-66.5 -33.38,-87.72 -22.26,-21.22 -52.01,-31.83 -89.27,-31.83 -38.3,0 -68.32,10.61 -90.05,31.83 -21.74,21.22 -32.61,50.46 -32.61,87.72l0 464.21 -344.66 0 0 -875.64 344.66 0 0 118c24.84,-37.27 58.74,-67.28 101.7,-90.05 42.95,-22.77 93.41,-34.16 151.37,-34.16 63.14,0 119.03,13.72 167.67,41.14 48.65,27.43 87.46,65.99 116.45,115.67 32.08,-45.54 72.97,-83.06 122.65,-112.56 49.68,-29.5 104.54,-44.25 164.57,-44.25z"/>
    <path id="_2" class="fil0" d="M5357.9 4843.7c21.74,-40.37 53.05,-72.2 93.93,-95.48 40.89,-23.29 89.79,-34.94 146.72,-34.94 68.31,0 129.9,17.86 184.75,53.57 54.86,35.71 98.07,87.46 129.64,155.25 31.57,67.8 47.35,147.75 47.35,239.87 0,92.12 -15.78,172.08 -47.35,239.87 -31.57,67.79 -74.78,119.55 -129.64,155.25 -54.85,35.71 -116.44,53.57 -184.75,53.57 -56.93,0 -105.83,-11.65 -146.72,-34.93 -40.88,-23.29 -72.19,-55.12 -93.93,-95.49l0 538.74 -344.66 0 0 -1294.83 344.66 0 0 119.55zm253.07 318.27c0,-46.58 -11.9,-82.8 -35.71,-108.68 -23.81,-25.87 -54.34,-38.81 -91.6,-38.81 -37.26,0 -67.79,12.94 -91.6,38.81 -23.81,25.88 -35.71,62.1 -35.71,108.68 0,46.58 11.9,82.8 35.71,108.68 23.81,25.88 54.34,38.81 91.6,38.81 37.26,0 67.79,-12.93 91.6,-38.81 23.81,-25.88 35.71,-62.1 35.71,-108.68z"/>
    <path id="_3" class="fil0" d="M6413.63 4885.62c35.19,-50.72 78.15,-91.34 128.87,-121.88 50.71,-30.53 103.5,-45.8 158.36,-45.8l0 367.96 -97.82 0c-65.2,0 -113.07,11.38 -143.61,34.15 -30.53,22.77 -45.8,63.14 -45.8,121.1l0 358.64 -344.66 0 0 -875.64 344.66 0 0 161.47z"/>
    <path id="_4" class="fil0" d="M6747.43 5161.97c0,-92.12 15.79,-172.07 47.35,-239.87 31.57,-67.79 74.78,-119.54 129.64,-155.25 54.86,-35.71 116.44,-53.57 184.76,-53.57 56.92,0 106.09,11.65 147.49,34.94 41.4,23.28 72.97,55.11 94.7,95.48l0 -119.55 343.12 0 0 875.64 -343.12 0 0 -119.55c-21.73,40.37 -53.3,72.2 -94.7,95.49 -41.4,23.28 -90.57,34.93 -147.49,34.93 -68.32,0 -129.9,-17.86 -184.76,-53.57 -54.86,-35.7 -98.07,-87.46 -129.64,-155.25 -31.56,-67.79 -47.35,-147.75 -47.35,-239.87zm603.94 0c0,-46.58 -11.9,-82.8 -35.71,-108.68 -23.8,-25.87 -54.33,-38.81 -91.6,-38.81 -37.26,0 -67.79,12.94 -91.6,38.81 -23.8,25.88 -35.71,62.1 -35.71,108.68 0,46.58 11.91,82.8 35.71,108.68 23.81,25.88 54.34,38.81 91.6,38.81 37.27,0 67.8,-12.93 91.6,-38.81 23.81,-25.88 35.71,-62.1 35.71,-108.68z"/>
    <path id="_5" class="fil0" d="M8239.43 5610.66c-82.81,0 -156.03,-13.46 -219.69,-40.37 -63.65,-26.91 -114.11,-64.17 -151.37,-111.78 -37.26,-47.61 -58.48,-101.44 -63.66,-161.47l330.7 0c4.14,25.88 15.26,45.03 33.38,57.45 18.11,12.42 41.14,18.63 69.09,18.63 17.59,0 31.56,-3.88 41.91,-11.65 10.35,-7.76 15.53,-17.33 15.53,-28.72 0,-19.66 -10.87,-33.64 -32.6,-41.92 -21.74,-8.28 -58.48,-17.59 -110.24,-27.94 -63.13,-12.42 -115.14,-25.88 -156.03,-40.37 -40.88,-14.49 -76.59,-39.33 -107.12,-74.52 -30.54,-35.19 -45.8,-83.84 -45.8,-145.94 0,-53.82 14.23,-102.73 42.69,-146.72 28.47,-43.99 70.64,-78.66 126.54,-104.02 55.89,-25.36 123.68,-38.04 203.38,-38.04 117.99,0 210.37,28.98 277.13,86.95 66.76,57.96 106.87,133.52 120.32,226.67l-305.85 0c-5.18,-23.81 -16.04,-42.18 -32.6,-55.12 -16.56,-12.93 -38.82,-19.4 -66.76,-19.4 -17.6,0 -31.05,3.36 -40.37,10.09 -9.32,6.73 -13.97,16.82 -13.97,30.27 0,17.6 10.87,30.8 32.6,39.59 21.74,8.8 56.41,17.86 104.02,27.17 63.14,12.42 116.44,26.4 159.91,41.92 43.48,15.53 81.25,42.18 113.34,79.96 32.09,37.78 48.13,89.79 48.13,156.03 0,51.75 -15.01,98.33 -45.02,139.73 -30.02,41.4 -73.23,74 -129.64,97.81 -56.41,23.8 -122.4,35.71 -197.95,35.71z"/>
   </g>
   <g>
    <g>
     <path class="fil1" d="M6281.67 2180.86c285.61,-79.48 355.8,-441.8 350.07,-735.44 -179.94,394.07 -857.04,309.51 -1145.25,333.1 -747.69,61.12 -867.26,741.74 -414.01,1040.4 -257.74,-322.62 -97.06,-586.48 251.8,-672.39 335.83,-82.7 635.48,124.03 957.39,34.33z"/>
     <path class="fil1" d="M6049.24 2616.55c199.98,-8.73 301.35,-236.31 342.35,-430.3 -178.41,231.73 -610.83,72.91 -803.96,44.49 -501.05,-73.81 -683.46,355.59 -430.91,621.11 -120.3,-251.44 25.57,-400.5 268.11,-403.82 233.47,-3.2 399.01,178.44 624.41,168.52z"/>
     <path class="fil1" d="M5745.32 2845.76c111.68,22.88 199.24,-88.79 248.78,-190.29 -130.69,103.3 -347.58,-44.4 -450.34,-86.87 -266.6,-110.23 -426.9,101.7 -324.18,283.43 -31.6,-155.61 69.65,-217.73 204.11,-185.95 129.42,30.61 195.71,153.91 321.63,179.68z"/>
    </g>
    <g>
     <g>
      <path class="fil2" d="M3186.27 47.58l830.62 -47.32c76.27,-4.35 142.51,52.69 150.34,127.93l-22.07 185.45 -10.08 -176.89c-3.45,-60.53 -55.8,-107.24 -116.33,-103.79l-830.62 47.32c-60.53,3.45 -107.24,55.8 -103.79,116.33l51.61 905.96 -32.5 5.42 -51.81 -909.52c-4.47,-78.52 56.11,-146.42 134.63,-150.89zm1037.82 1075.76l26.25 460.8c4.47,78.52 -56.11,146.42 -134.63,150.9l-454.51 25.89 10.01 -33.38 442.64 -25.21c60.54,-3.45 107.24,-55.8 103.79,-116.33l-27.76 -487.37 34.21 24.7z"/>
      <g>
       <path class="fil2" d="M3223.28 221.25c22.11,-1.26 41.04,15.63 42.3,37.73 1.26,22.1 -15.63,41.04 -37.73,42.3 -22.11,1.26 -41.04,-15.63 -42.3,-37.74 -1.26,-22.1 15.63,-41.03 37.73,-42.29z"/>
       <path class="fil2" d="M3323.13 216.91l688.4 -39.21c21.27,-1.21 39.66,15.19 40.87,36.46l0 0c1.21,21.27 -15.2,39.66 -36.46,40.87l-688.4 39.21c-21.27,1.22 -39.66,-15.19 -40.87,-36.46l0 0c-1.21,-21.27 15.2,-39.65 36.46,-40.87z"/>
       <path class="fil2" d="M3231.5 365.36c22.1,-1.26 41.03,15.64 42.29,37.74 1.26,22.1 -15.63,41.03 -37.73,42.29 -22.1,1.26 -41.04,-15.63 -42.3,-37.73 -1.26,-22.1 15.64,-41.04 37.74,-42.3z"/>
       <path class="fil2" d="M3331.34 361.03l688.4 -39.22c21.27,-1.21 39.66,15.2 40.87,36.46l0 0c1.21,21.27 -15.19,39.66 -36.46,40.87l-688.4 39.22c-21.27,1.21 -39.66,-15.2 -40.87,-36.46l0 -0.01c-1.21,-21.26 15.2,-39.65 36.46,-40.86z"/>
      </g>
      <g>
       <path class="fil2" d="M3239.63 508.12c22.1,-1.26 41.04,15.64 42.3,37.74 1.26,22.1 -15.64,41.03 -37.74,42.29 -22.1,1.26 -41.04,-15.63 -42.3,-37.73 -1.26,-22.1 15.64,-41.04 37.74,-42.3z"/>
       <path class="fil2" d="M3339.48 503.79l688.39 -39.22c21.27,-1.21 39.66,15.2 40.87,36.46l0 0.01c1.21,21.26 -15.19,39.65 -36.46,40.86l-688.4 39.22c-21.27,1.21 -39.65,-15.2 -40.87,-36.46l0 0c-1.21,-21.27 15.2,-39.66 36.47,-40.87z"/>
       <path class="fil2" d="M3247.84 652.23c22.1,-1.25 41.04,15.64 42.3,37.74 1.25,22.1 -15.64,41.04 -37.74,42.3 -22.1,1.26 -41.04,-15.64 -42.3,-37.74 -1.26,-22.1 15.64,-41.04 37.74,-42.3z"/>
       <path class="fil2" d="M3347.68 647.9l688.4 -39.21c21.27,-1.21 39.66,15.19 40.87,36.46l0 0c1.21,21.27 -15.19,39.65 -36.46,40.87l-688.4 39.21c-21.27,1.21 -39.65,-15.19 -40.87,-36.46l0 0c-1.21,-21.27 15.2,-39.66 36.46,-40.87z"/>
       <path class="fil2" d="M3255.97 795c22.1,-1.26 41.04,15.63 42.3,37.73 1.26,22.11 -15.64,41.04 -37.74,42.3 -22.1,1.26 -41.04,-15.64 -42.29,-37.74 -1.26,-22.1 15.63,-41.03 37.73,-42.29z"/>
       <path class="fil2" d="M3355.82 790.66l688.4 -39.21c21.26,-1.21 39.65,15.19 40.86,36.46l0 0c1.21,21.27 -15.19,39.66 -36.46,40.87l-688.4 39.21c-21.26,1.22 -39.65,-15.19 -40.86,-36.46l0 0c-1.21,-21.26 15.19,-39.65 36.46,-40.87z"/>
      </g>
     </g>
     <g>
      <path class="fil2" d="M4362.24 29.24l1073.52 168.92c101.48,15.97 171.44,112.07 155.47,213.55l-294.74 1873.06c-15.97,101.48 -112.07,171.44 -213.55,155.47l-1073.51 -168.93c-101.48,-15.97 -171.45,-112.06 -155.48,-213.54l294.75 -1873.06c15.97,-101.48 112.06,-171.44 213.54,-155.47zm-6.65 42.26l1073.52 168.93c78.23,12.31 132.17,86.39 119.86,164.63l-294.75 1873.06c-12.31,78.23 -86.39,132.17 -164.62,119.86l-1073.52 -168.93c-78.23,-12.31 -132.17,-86.39 -119.86,-164.63l294.75 -1873.06c12.31,-78.23 86.39,-132.17 164.62,-119.86z"/>
      <g>
       <circle class="fil2" transform="matrix(0.211321 0.0332536 -0.0332536 0.211321 4353.45 312.94)" r="244.74"/>
       <path class="fil2" d="M4498.96 284.58l872.23 137.25c32.41,5.11 55.18,31.62 50.84,59.22l0 -0.01c-4.34,27.6 -34.16,45.84 -66.57,40.74l-872.23 -137.26c-32.42,-5.1 -55.19,-31.61 -50.85,-59.2l0.01 -0.01c4.34,-27.59 34.15,-45.83 66.56,-40.73z"/>
       <circle class="fil2" transform="matrix(0.211321 0.0332536 -0.0332536 0.211321 4324.15 499.14)" r="244.74"/>
       <path class="fil2" d="M4469.66 470.88l872.23 137.25c32.41,5.11 55.18,31.62 50.84,59.22l0 -0.01c-4.34,27.6 -34.16,45.84 -66.57,40.74l-872.23 -137.26c-32.42,-5.1 -55.19,-31.61 -50.85,-59.2l0.01 -0.01c4.34,-27.59 34.15,-45.83 66.56,-40.73z"/>
      </g>
      <g>
       <circle class="fil2" transform="matrix(0.211321 0.0332536 -0.0332536 0.211321 4295.05 683.64)" r="244.74"/>
       <path class="fil2" d="M4440.66 655.38l872.23 137.25c32.41,5.11 55.18,31.62 50.84,59.22l0 -0.01c-4.34,27.6 -34.16,45.84 -66.57,40.74l-872.23 -137.26c-32.42,-5.1 -55.19,-31.61 -50.85,-59.2l0.01 -0.01c4.34,-27.59 34.15,-45.83 66.56,-40.73z"/>
       <circle class="fil2" transform="matrix(0.211321 0.0332536 -0.0332536 0.211321 4265.75 869.94)" r="244.74"/>
       <path class="fil2" d="M4411.26 841.58l872.23 137.25c32.41,5.11 55.18,31.62 50.84,59.22l0 -0.01c-4.34,27.6 -34.16,45.84 -66.57,40.74l-872.23 -137.26c-32.42,-5.1 -55.19,-31.61 -50.85,-59.2l0.01 -0.01c4.34,-27.59 34.15,-45.83 66.56,-40.73z"/>
       <circle class="fil2" transform="matrix(0.211321 0.0332536 -0.0332536 0.211321 4236.75 1054.44)" r="244.74"/>
       <path class="fil2" d="M4382.26 1026.08l872.23 137.25c32.41,5.11 55.18,31.62 50.84,59.22l0 -0.01c-4.34,27.6 -34.16,45.84 -66.57,40.74l-872.23 -137.26c-32.42,-5.1 -55.19,-31.61 -50.85,-59.2l0.01 -0.01c4.34,-27.59 34.15,-45.83 66.56,-40.73z"/>
      </g>
     </g>
     <path class="fil1" d="M2718.78 3746.54l39.4 -384.84 186.48 -1821.33 47.84 -467.16 191.6 36.5 0 830.28 54.74 -839.4c97.33,-66.91 194.65,-133.82 291.97,-200.73l-127.73 1843.04 228.09 -1843.04 0 0c589.03,19.05 1482.12,237.73 1897.8,593.06l-492.7 2545.59 -1770.06 -474.45 -547.43 182.48zm2280.99 364.96l0 0 -319.34 118.61 -1961.65 -410.58 547.43 -173.35 1733.56 465.32z"/>
    </g>
    <path class="fil3" d="M4128.43 1805.62c80.56,14.62 148.09,43.9 202.82,87.66 54.52,43.57 92.88,97.58 115.06,161.48 22.01,64.07 26.33,133.06 12.77,207.15 -13.37,73.34 -41.76,136.46 -84.98,189.14 -43.4,52.87 -98.51,90.69 -165.36,113.44 -66.66,22.56 -140.45,26.73 -221,11.93l-321.1 -58.49 140.51 -770.98 321.28 58.67zm-123.08 551.27c54.5,9.98 100.4,2.87 137.72,-21 37.3,-23.85 61.05,-63.5 71.02,-118.74 10.17,-55.06 1.95,-100.4 -24.67,-136.03 -26.42,-35.63 -66.99,-58.45 -121.3,-68.25l-57.84 -10.51 -62.76 344 57.83 10.53z"/>
    <path id="_1_1" class="fil3" d="M4388.43 2253.72c13.91,-76.12 41.72,-141.25 83.46,-195.03 41.72,-53.97 94.26,-92.13 157.6,-114.86 63.33,-22.55 133.81,-26.69 211.58,-12.61 66.7,12.31 124.24,35.75 172.25,70.32 48.02,34.57 84.47,77.9 109.15,129.59 24.69,51.7 36.87,109.01 36.53,172.13l-254.77 -46.54c-6.82,-27.46 -19.88,-50.25 -38.63,-68.41 -18.76,-17.97 -42.09,-29.62 -69.61,-34.62 -40.65,-7.49 -75.65,1.96 -104.64,28.16 -29.18,26.21 -48.49,65.08 -57.94,116.63 -9.46,51.55 -5.12,94.71 13,129.47 17.94,34.77 47.41,55.8 88.06,63.29 27.53,4.99 53.35,2.42 77.27,-7.88 24.11,-10.11 44.12,-27.04 60.39,-50.2l254.78 46.35c-21.95,59.01 -53.75,108.49 -95.02,148.05 -41.45,39.76 -90.74,67.38 -147.84,82.88 -57.3,15.32 -119.28,17 -185.98,4.88 -77.6,-14.28 -142.18,-43.02 -193.58,-86.62 -51.21,-43.4 -86.99,-97.8 -106.96,-162.81 -19.98,-65.2 -23.01,-135.86 -9.1,-212.17z"/>
    <g>
     <path class="fil1" d="M1680.56 1832.69c-339.34,-62.92 -457.82,-475.9 -481.23,-817 249,438.56 1025.53,271.19 1362.16,269.05 873.3,-5.66 1081.62,771.37 586.59,1164.1 265.86,-400.5 52.53,-690.03 -360.81,-753.95 -397.91,-61.53 -724.23,208.88 -1106.71,137.8z"/>
     <path class="fil1" d="M1994.68 2314.14c-232.79,10.35 -373.63,-243.18 -441.04,-463.94 230.61,250.46 715.8,22.03 936.85,-30.7 573.48,-136.88 828.96,342.39 563.28,676.15 113.77,-303.89 -70.65,-461.82 -352.25,-440.84 -271.07,20.19 -444.44,247.77 -706.84,259.33z"/>
     <path class="fil1" d="M2370.59 2548.83c-127.17,37.97 -240.14,-82.56 -307.98,-195.19 162.12,106.41 398.52,-87.07 513.34,-146.84 297.87,-155.11 505.46,74.24 404.94,295.49 20.72,-183.68 -103.06,-245.36 -255.72,-194.74 -146.96,48.75 -211.2,198.51 -354.58,241.28z"/>
    </g>
   </g>
  </g>
 </g>
</svg>
