<?xml version="1.0" encoding="UTF-8"?>
<!DOCTYPE svg PUBLIC "-//W3C//DTD SVG 1.1//EN" "http://www.w3.org/Graphics/SVG/1.1/DTD/svg11.dtd">
<!-- Creator: CorelDRAW 2019 (64-Bit) -->
<svg xmlns="http://www.w3.org/2000/svg" xml:space="preserve" width="84.6666mm" height="67.7332mm" version="1.1" style="shape-rendering:geometricPrecision; text-rendering:geometricPrecision; image-rendering:optimizeQuality; fill-rule:evenodd; clip-rule:evenodd"
viewBox="0 0 8466.66 6773.32"
 xmlns:xlink="http://www.w3.org/1999/xlink"
 xmlns:xodm="http://www.corel.com/coreldraw/odm/2003">
 <defs>
  <style type="text/css">
   <![CDATA[
    .fil13 {fill:#010101;fill-rule:nonzero}
    .fil10 {fill:#050533;fill-rule:nonzero}
    .fil15 {fill:#080334;fill-rule:nonzero}
    .fil9 {fill:#113133;fill-rule:nonzero}
    .fil8 {fill:#183D41;fill-rule:nonzero}
    .fil3 {fill:#4A46E9;fill-rule:nonzero}
    .fil7 {fill:#5E5D7C;fill-rule:nonzero}
    .fil11 {fill:#6E4975;fill-rule:nonzero}
    .fil16 {fill:#72728C;fill-rule:nonzero}
    .fil17 {fill:#B8D4DB;fill-rule:nonzero}
    .fil4 {fill:#C3C3D1;fill-rule:nonzero}
    .fil1 {fill:#C8EF53;fill-rule:nonzero}
    .fil0 {fill:#D8DDE9;fill-rule:nonzero}
    .fil5 {fill:#E84949;fill-rule:nonzero}
    .fil14 {fill:#E8F2FB;fill-rule:nonzero}
    .fil6 {fill:#EB6260;fill-rule:nonzero}
    .fil2 {fill:white;fill-rule:nonzero}
    .fil12 {fill:white;fill-rule:nonzero;fill-opacity:0.301961}
    .fil18 {fill:#E84949;fill-rule:nonzero;fill-opacity:0.501961}
   ]]>
  </style>
 </defs>
 <g id="Capa_x0020_1">
  <metadata id="CorelCorpID_0Corel-Layer"/>
  <g id="_204619200">
   <g>
    <g>
     <path class="fil0" d="M8466.66 6082.47c0,376.97 -1895.32,682.56 -4233.33,682.56 -2338.01,0 -4233.34,-305.59 -4233.34,-682.56 0,-376.98 1895.33,-682.58 4233.34,-682.58 2338.01,0 4233.33,305.6 4233.33,682.58z"/>
    </g>
   </g>
   <g>
    <g>
     <path class="fil1" d="M2588.73 6162.36c-233.03,-6.15 -437.66,-171.18 -431.52,-404.2l305.61 -5276.16c6.15,-233.04 200.75,-417.63 433.78,-411.49l3104.03 81.88c233.03,6.15 561.91,143.05 552.68,492.82l-303.12 5103.94c-6.15,233.03 -200.73,417.61 -433.75,411.46l-3227.71 1.75z"/>
     <polygon class="fil2" points="2890.08,360.83 6154.63,435.79 5943.93,5617.58 2545.69,5472.09 "/>
     <path class="fil3" d="M5433.51 547.09l-1846.58 -109.69c-64.58,-3.84 -115.2,-63.68 -115.2,-136.2l0 -156.51c0,-75.32 54.46,-136.39 121.64,-136.39l1846.57 0c67.18,0 121.64,61.07 121.64,136.39l0 266.21c0,78.16 -58.47,140.33 -128.07,136.19z"/>
    </g>
    <path class="fil4" d="M3111.12 1069.43c-122.17,197.79 199.89,259.24 224.88,90.58 31.87,-215.15 -159.29,-196.77 -224.88,-90.58z"/>
    <g>
     <path class="fil3" d="M3224.57 1285.25l-0.01 0c-52.76,0 -100.47,-24.44 -121.56,-62.26 -14.69,-26.33 -23.83,-71.27 16.02,-135.78 29.45,-47.69 84.06,-79.74 135.89,-79.74 30.61,0 56.49,11.23 74.81,32.46 26.09,30.24 34.96,79.36 25.68,142.05 -11.29,76.22 -77.53,103.27 -130.83,103.27zm30.34 -265.28l0 0c-46.92,0 -98.42,30.35 -125.26,73.8 -29.02,46.98 -34.46,89.57 -15.74,123.13 18.92,33.94 62.35,55.85 110.65,55.86l0.01 0c48.33,0 108.34,-24.25 118.47,-92.61 8.74,-58.99 0.86,-104.65 -22.79,-132.05 -15.87,-18.4 -38.47,-28.13 -65.34,-28.13z"/>
    </g>
    <path class="fil4" d="M3052.44 1783.93c-122.17,197.79 199.9,259.24 224.88,90.58 31.88,-215.15 -159.29,-196.77 -224.88,-90.58z"/>
    <g>
     <path class="fil3" d="M3165.9 1999.75l-0.02 0c-52.75,0 -100.47,-24.44 -121.56,-62.26 -14.68,-26.33 -23.83,-71.27 16.03,-135.78 29.45,-47.69 84.06,-79.74 135.88,-79.74 30.62,0 56.49,11.23 74.81,32.46 26.09,30.24 34.97,79.36 25.68,142.05 -11.29,76.22 -77.53,103.27 -130.82,103.27zm30.33 -265.28l0 0c-46.91,0 -98.42,30.35 -125.26,73.8 -29.02,46.98 -34.46,89.56 -15.74,123.13 18.92,33.93 62.36,55.85 110.65,55.86l0.02 0c48.32,0 108.34,-24.25 118.46,-92.61 8.74,-58.98 0.86,-104.65 -22.78,-132.05 -15.87,-18.4 -38.47,-28.13 -65.35,-28.13z"/>
    </g>
    <path class="fil4" d="M2975.09 2514.81c-122.17,197.79 199.89,259.24 224.88,90.57 31.87,-215.14 -159.29,-196.77 -224.88,-90.57z"/>
    <g>
     <path class="fil3" d="M3088.54 2730.62l-0.02 0c-52.75,0 -100.47,-24.44 -121.56,-62.26 -14.68,-26.33 -23.82,-71.27 16.03,-135.79 29.45,-47.68 84.06,-79.73 135.88,-79.73 30.62,0 56.49,11.23 74.81,32.46 26.1,30.24 34.97,79.36 25.69,142.05 -11.3,76.22 -77.53,103.27 -130.83,103.27zm30.33 -265.28l0 0c-46.91,0 -98.41,30.35 -125.25,73.8 -29.02,46.98 -34.46,89.56 -15.74,123.13 18.91,33.93 62.35,55.85 110.64,55.86l0.02 0c48.33,0 108.34,-24.25 118.47,-92.61 8.74,-58.99 0.86,-104.65 -22.79,-132.05 -15.87,-18.4 -38.47,-28.13 -65.35,-28.13z"/>
    </g>
    <path class="fil4" d="M2932.73 3320.61c-122.17,197.78 199.89,259.24 224.88,90.57 31.87,-215.14 -159.29,-196.77 -224.88,-90.57z"/>
    <g>
     <path class="fil3" d="M3046.18 3536.42l-0.01 0c-52.76,0 -100.47,-24.44 -121.56,-62.26 -14.69,-26.33 -23.83,-71.27 16.02,-135.78 29.45,-47.69 84.06,-79.74 135.89,-79.74 30.61,0 56.49,11.23 74.81,32.47 26.09,30.23 34.96,79.35 25.68,142.04 -11.29,76.22 -77.53,103.27 -130.83,103.27zm30.34 -265.28l0 0c-46.91,0 -98.42,30.35 -125.26,73.8 -29.02,46.98 -34.46,89.57 -15.74,123.14 18.92,33.92 62.35,55.84 110.65,55.85l0.01 0c48.33,0 108.34,-24.25 118.47,-92.61 8.74,-58.99 0.86,-104.65 -22.79,-132.05 -15.87,-18.4 -38.47,-28.13 -65.34,-28.13z"/>
    </g>
    <path class="fil4" d="M2896.69 4036.26c-122.17,197.79 199.89,259.24 224.88,90.58 31.88,-215.15 -159.29,-196.78 -224.88,-90.58z"/>
    <g>
     <path class="fil3" d="M3010.14 4252.08l-0.01 0c-52.76,-0.01 -100.47,-24.45 -121.56,-62.27 -14.69,-26.33 -23.83,-71.26 16.02,-135.79 29.46,-47.68 84.06,-79.73 135.89,-79.73 30.62,0 56.49,11.23 74.81,32.47 26.09,30.24 34.97,79.36 25.68,142.04 -11.29,76.23 -77.53,103.28 -130.83,103.28zm30.34 -265.29l0 0c-46.91,0 -98.42,30.35 -125.26,73.8 -29.02,46.98 -34.46,89.57 -15.74,123.14 18.92,33.93 62.35,55.85 110.65,55.86l0.01 0c48.33,0 108.34,-24.26 118.47,-92.62 8.74,-58.98 0.86,-104.64 -22.78,-132.05 -15.88,-18.4 -38.47,-28.13 -65.35,-28.13z"/>
    </g>
    <g>
     <path class="fil4" d="M5717.35 1382.81c-285.66,0 -1811.54,-58.38 -2212.54,-96.79 -5.15,-0.49 -8.93,-5.07 -8.44,-10.22 0.5,-5.15 5.19,-8.94 10.22,-8.43 404.74,38.77 1956.52,98.04 2219.02,96.69l0.04 0c5.16,0 9.35,4.16 9.37,9.32 0.03,5.18 -4.15,9.39 -9.32,9.42 -2.65,0.01 -5.45,0.01 -8.35,0.01z"/>
    </g>
    <g>
     <path class="fil4" d="M5696.72 2105.87c-285.66,0 -1811.53,-58.38 -2212.53,-96.79 -5.16,-0.5 -8.94,-5.07 -8.44,-10.22 0.49,-5.15 5.12,-8.94 10.22,-8.44 400.63,38.37 1925.11,96.71 2210.67,96.71 2.92,0 5.68,0 8.34,-0.02l0.05 0c5.15,0 9.34,4.17 9.37,9.33 0.02,5.17 -4.16,9.39 -9.33,9.41 -2.65,0.02 -5.45,0.02 -8.35,0.02z"/>
    </g>
    <g>
     <path class="fil4" d="M5595.91 2821.82c-285.63,0 -1811.49,-58.38 -2212.53,-96.78 -5.15,-0.5 -8.92,-5.08 -8.43,-10.22 0.49,-5.16 5.15,-8.98 10.22,-8.44 404.76,38.77 1956.39,97.87 2219.01,96.68l0.04 0c5.16,0 9.34,4.17 9.37,9.33 0.02,5.17 -4.16,9.39 -9.33,9.41 -2.64,0.02 -5.44,0.02 -8.35,0.02z"/>
    </g>
    <g>
     <path class="fil4" d="M5595.91 3656.62c-285.65,0 -1811.52,-58.38 -2212.53,-96.79 -5.15,-0.5 -8.92,-5.07 -8.43,-10.22 0.49,-5.16 5.15,-8.97 10.22,-8.44 404.72,38.77 1956.28,97.75 2219.01,96.69l0.04 0c5.16,0 9.34,4.17 9.37,9.33 0.02,5.17 -4.16,9.39 -9.33,9.41 -2.64,0.02 -5.44,0.02 -8.35,0.02z"/>
    </g>
    <g>
     <path class="fil4" d="M5527.51 4400.58c-285.66,0 -1811.53,-58.38 -2212.53,-96.79 -5.15,-0.5 -8.93,-5.07 -8.44,-10.22 0.5,-5.15 5.18,-8.97 10.22,-8.43 400.63,38.37 1925.11,96.71 2210.67,96.71 2.92,0 5.68,-0.01 8.34,-0.02l0.05 0c5.15,0 9.34,4.17 9.37,9.33 0.02,5.17 -4.16,9.38 -9.33,9.41 -2.65,0.01 -5.45,0.01 -8.35,0.01z"/>
    </g>
   </g>
   <g>
    <g>
     <g>
      <g>
       <path class="fil5" d="M5716.86 2764.47l-8.04 1.43c-15.05,2.65 -29.55,-7.49 -32.21,-22.54l-25.92 -146.6c-2.66,-15.04 7.47,-29.54 22.53,-32.2l8.05 -1.42c15.04,-2.66 29.54,7.48 32.2,22.52l25.93 146.6c2.65,15.06 -7.48,29.54 -22.54,32.21z"/>
      </g>
      <g>
       <path class="fil5" d="M5639.17 2848.69c0,0 -107.28,-30.36 -149.73,-113.47 -14.69,-28.77 48.67,-177.36 83.54,-167.72 34.87,9.65 149.49,124.16 149.49,124.16l-83.3 157.03z"/>
      </g>
     </g>
     <g>
      <g>
       <g>
        <path class="fil5" d="M5617.48 2840.03c-30.12,-41.9 100.51,-156.79 100.51,-156.79 15.5,-7.33 208.74,250.89 487.45,212.42 99.26,-13.7 257.7,-156.17 271.28,-179.03 1.81,-3.05 196.18,107.4 196.18,107.4 -24.6,41.41 -68.3,178.25 -185.62,254.15 -242.72,157.01 -720.68,55.68 -869.8,-238.15z"/>
       </g>
      </g>
      <g>
       <g>
        <path class="fil6" d="M7896.95 3633.01c10.67,-6.77 24.94,-3.58 31.71,7.09l93.01 146.69c6.76,10.68 3.57,24.94 -7.1,31.72 -10.67,6.77 -24.95,3.57 -31.72,-7.12l-93.01 -146.67c-6.77,-10.67 -3.57,-24.94 7.11,-31.71z"/>
       </g>
       <g>
        <path class="fil6" d="M7846.9 3664.72l0.7 -0.45c10.48,-6.64 24.51,-3.49 31.14,6.99l106.3 167.63c6.65,10.49 3.51,24.51 -6.96,31.14l-0.71 0.45c-10.48,6.65 -24.5,3.51 -31.15,-6.97l-106.29 -167.64c-6.65,-10.49 -3.5,-24.5 6.97,-31.15z"/>
       </g>
       <g>
        <path class="fil6" d="M7772.74 3576.53l8.13 0.87c15.2,1.64 26.3,15.4 24.67,30.6l-15.9 148.02c-1.64,15.2 -15.4,26.3 -30.6,24.67l-8.13 -0.88c-15.2,-1.63 -26.3,-15.4 -24.65,-30.59l15.89 -148.03c1.63,-15.2 15.4,-26.29 30.59,-24.66z"/>
       </g>
       <g>
        <path class="fil6" d="M7797.57 3696.01c10.68,-6.77 24.95,-3.57 31.71,7.1l94.19 148.53c6.77,10.68 3.56,24.95 -7.1,31.72 -10.68,6.77 -24.95,3.57 -31.72,-7.1l-94.19 -148.54c-6.76,-10.68 -3.57,-24.95 7.11,-31.71z"/>
       </g>
       <g>
        <path class="fil6" d="M7870.82 3517.25c0,0 116.82,60.03 134.46,151.67 6.1,31.71 -118.34,155.8 -149.15,136.83 -30.81,-18.96 -109.02,-160.84 -109.02,-160.84l123.71 -127.66z"/>
       </g>
       <g>
        <path class="fil6" d="M7944.81 3602.43l2.76 -1.74c9.89,-6.28 23.12,-3.32 29.39,6.58l68.38 107.85c6.27,9.89 3.31,23.12 -6.58,29.39l-2.75 1.74c-9.9,6.27 -23.13,3.32 -29.41,-6.58l-68.37 -107.83c-6.28,-9.9 -3.32,-23.13 6.58,-29.41z"/>
       </g>
      </g>
      <g>
       <path class="fil7" d="M7116.3 2742.3c0,0 -133.19,-206.95 -416.64,-129.65 -283.45,77.29 -444.46,366.39 -234.11,1522.24 0,0 328.15,-350.32 1007.25,-300.34 0,0 -153.79,-792.62 -356.5,-1092.25z"/>
      </g>
      <g>
       <path class="fil7" d="M7313.86 2681.63l-172.13 177.12c0,0 -508.34,174.14 -652.4,181.47 -144.07,7.33 -212.11,-216.26 -212.11,-216.26 0,0 161.41,-225.02 531.76,-249.42 254.78,-16.77 504.88,107.09 504.88,107.09z"/>
      </g>
      <g>
       <g>
        <path class="fil8" d="M6580.57 2474.4l1.48 -3.06c-0.34,-0.18 -34.89,-17.2 -39.7,-44.4 -2.49,-14.11 3.41,-28.66 17.56,-43.25 6.65,-6.87 12.75,-13.06 18.34,-18.71 38.52,-39.06 52.92,-53.68 53.36,-92.55l-3.41 -0.03c-0.42,37.49 -13.52,50.76 -52.39,90.18 -5.58,5.66 -11.69,11.86 -18.35,18.73 -14.96,15.43 -21.17,30.98 -18.48,46.24 5.13,28.92 40.1,46.14 41.59,46.85z"/>
       </g>
       <g>
        <path class="fil8" d="M6629.91 2272.42c0,0 -0.05,60.3 -51.48,112.03 -51.43,51.73 -19.73,104.9 37,93.2 56.72,-11.71 61.81,58.44 135.83,36.7 74.03,-21.74 -121.35,-241.93 -121.35,-241.93z"/>
       </g>
       <g>
        <path class="fil6" d="M6868.93 2573.07c-27.98,-9.44 -39.24,-12.06 -44.77,-41.06l-17.11 -89.76 -5 -26.23 -29.4 -154.23 -21.84 148.24 -13.1 88.98 -3.73 25.36c-2.3,15.52 -12.05,55.28 -25.2,62.25 -14.03,7.42 -4.64,42.19 25.85,44.51 96.41,7.33 134.3,-58.06 134.3,-58.06z"/>
       </g>
       <g>
        <path class="fil8" d="M6807.74 2439.87c-0.21,0.8 -0.44,1.6 -0.69,2.38 -13.92,46.26 -69.1,57.09 -69.1,57.09l-0.24 -0.33 13.1 -88.98c16.63,-2.23 39.82,-3.16 51.24,5.99 5.97,4.79 8.72,12.32 5.69,23.85z"/>
       </g>
       <g>
        <path class="fil6" d="M6623.78 2253.26c20.7,-93.41 98.87,-155.52 174.57,-138.73 75.71,16.79 120.3,106.12 99.59,199.52 -20.71,93.41 -98.88,155.52 -174.59,138.73 -75.71,-16.78 -120.29,-106.12 -99.57,-199.52z"/>
       </g>
       <g>
        <path class="fil6" d="M6873.95 2335.5c-18.81,11.38 -40.86,8.09 -49.24,-7.36 -8.39,-15.45 0.06,-37.2 18.88,-48.58 18.82,-11.39 40.87,-8.09 49.25,7.35 8.38,15.45 -0.08,37.21 -18.89,48.59z"/>
       </g>
       <g>
        <path class="fil9" d="M6662.76 2376.73c0,0 46.6,11.46 97.06,5.4 0,0 -6.34,47.01 -57.75,38.86 -29.89,-4.74 -39.31,-44.26 -39.31,-44.26z"/>
       </g>
       <g>
        <path class="fil2" d="M6662.76 2376.73c0,0 9.25,11.91 35.71,17.66 26.46,5.74 61.35,-12.26 61.35,-12.26 0,0 -59.86,2.99 -97.06,-5.4z"/>
       </g>
       <g>
        <g>
         <path class="fil10" d="M6747.24 2282.35c-0.87,-0.45 -1.51,-1.28 -1.68,-2.32 -0.27,-1.73 0.89,-3.38 2.63,-3.66 1.03,-0.16 24.41,-6.31 38.38,17.95 0.87,1.53 0.42,3.47 -1.1,4.39 -1.51,0.9 -3.16,0.18 -4.39,-1.1 -12.18,-12.79 -30.99,-15.07 -31.85,-14.93 -0.71,0.1 -1.41,-0.02 -1.99,-0.33z"/>
        </g>
       </g>
       <g>
        <path class="fil10" d="M6764.31 2322.08c-1.42,7.5 -6.96,12.74 -12.41,11.71 -5.43,-1.02 -8.69,-7.93 -7.27,-15.42 1.41,-7.48 6.96,-12.72 12.39,-11.7 5.45,1.02 8.7,7.92 7.29,15.41z"/>
       </g>
       <g>
        <g>
         <path class="fil10" d="M6632.33 2273.92c-0.96,-0.09 -1.88,-0.61 -2.42,-1.5 -0.93,-1.5 -0.47,-3.46 1.03,-4.39 0.88,-0.55 20.16,-15.13 42.31,1.98 1.41,1.08 1.72,3.05 0.67,4.47 -1.05,1.42 -2.86,1.38 -4.47,0.66 -16.15,-7.19 -34.41,-2.12 -35.15,-1.67 -0.61,0.37 -1.3,0.51 -1.97,0.45z"/>
        </g>
       </g>
       <g>
        <path class="fil10" d="M6663.26 2304.16c1.54,7.47 -1.6,14.42 -7.01,15.55 -5.42,1.12 -11.06,-4.02 -12.61,-11.49 -1.54,-7.46 1.6,-14.42 7,-15.54 5.42,-1.12 11.07,4.02 12.62,11.48z"/>
       </g>
       <g>
        <path class="fil8" d="M6733.35 2132.28c0,0 -10.05,59.34 61,85.6 71.07,26.24 114.73,68.46 93.18,119.06 -21.54,50.61 -163.95,133.94 -86.55,195.61 77.41,61.67 76.48,-21.53 166.53,17.69 90.06,39.21 134.89,-82.71 86.27,-170.02 -48.63,-87.31 20.41,-274.49 -224.5,-319.82 -244.92,-45.34 -198.88,168.3 -198.88,168.3 0,0 88.72,-31.59 102.95,-96.42z"/>
       </g>
       <g>
        <path class="fil2" d="M6823.57 2548.96l1.15 -1.68c-16.32,-11.21 -24.59,-23.8 -25.28,-38.51 -1.91,-40.71 56.72,-89.65 108.45,-132.82 13.73,-11.46 26.7,-22.28 38.39,-32.77 32.57,-29.2 43.95,-70.13 29.7,-106.82 -15.66,-40.36 -56.72,-65.28 -107.35,-65.28 -1.18,0 -2.36,0.02 -3.54,0.02 -48.36,0 -77.96,-16.72 -94.36,-30.86 -17.99,-15.54 -24.37,-31.41 -24.43,-31.57l-1.89 0.74c0.27,0.67 6.58,16.41 24.92,32.28 16.64,14.4 46.72,31.44 95.76,31.44 1.18,0 2.36,-0.03 3.54,-0.01 49.78,0 90.1,24.42 105.46,63.96 14.15,36.44 3.25,75.53 -29.16,104.59 -11.68,10.46 -24.62,21.27 -38.34,32.72 -52.09,43.47 -111.13,92.76 -109.18,134.48 0.71,15.16 9.5,28.65 26.16,40.09z"/>
       </g>
       <g>
        <g>
         <path class="fil11" d="M6603.23 2380.98c-18.9,-12.14 -31.97,-38.9 -34.91,-71.56 -4.79,-53.23 18.57,-106.05 52.11,-117.75 12.52,-4.54 25.09,-2.85 36.4,4.36 18.91,12.15 31.97,38.92 34.94,71.48 4.81,53.15 -18.57,106.05 -52.13,117.85 -7.53,2.68 -15.08,3.13 -22.36,1.52 -4.84,-1.08 -9.53,-3.05 -14.05,-5.9zm82.28 -112.82l0 0c-2.74,-30.76 -14.74,-55.71 -32.07,-66.86 -9.78,-6.15 -20.39,-7.49 -30.92,-3.8 -31.04,10.87 -52.54,60.87 -47.96,111.35 2.76,30.69 14.74,55.72 32.07,66.88 9.71,6.03 20.39,7.47 30.88,3.79 31.06,-10.97 52.6,-60.95 48,-111.36z"/>
        </g>
       </g>
       <g>
        <path class="fil12" d="M6857.51 2270.4c0.29,50.74 -28.79,98.68 -64.94,107.1 -36.16,8.43 -65.7,-25.88 -66,-76.6 -0.29,-50.73 28.79,-98.68 64.94,-107.1 36.16,-8.42 65.7,25.88 66,76.6z"/>
       </g>
       <g>
        <path class="fil12" d="M6692.18 2271.85c0.26,50.96 -26.09,100.32 -58.86,110.23 -32.77,9.92 -59.55,-23.35 -59.83,-74.31 -0.26,-50.95 26.08,-100.3 58.85,-110.22 32.77,-9.92 59.56,23.35 59.84,74.3z"/>
       </g>
       <g>
        <g>
         <path class="fil11" d="M6746.8 2368.05c-18.81,-14.9 -29.77,-41.56 -30.07,-73.18 -0.56,-54.23 31.33,-105.62 71.1,-114.55 16.01,-3.58 31.32,-0.09 44.44,10.22 18.76,14.88 29.68,41.55 29.95,73.05 0.59,54.34 -31.3,105.72 -71.09,114.57 -7.9,1.86 -15.63,1.9 -23,0.26 -7.54,-1.67 -14.71,-5.2 -21.33,-10.37zm42.37 -181.7l0 0c-37,8.35 -66.7,56.98 -66.22,108.43 0.3,29.29 10.67,54.9 27.75,68.4 11.5,8.84 25.05,11.94 39.08,8.95 37.05,-8.35 66.75,-56.98 66.23,-108.43 -0.28,-29.2 -10.62,-54.72 -27.64,-68.29 -5.82,-4.62 -12.21,-7.71 -18.96,-9.2 -6.48,-1.44 -13.29,-1.37 -20.24,0.14z"/>
        </g>
       </g>
       <g>
        <g>
         <path class="fil11" d="M6681.7 2288.49c1.28,0.29 2.65,0.13 3.9,-0.51 0.74,-0.4 18.07,-8.67 42.47,1.83 2.9,1.1 6.4,-0.06 7.7,-3.01 1.3,-2.95 -0.06,-6.39 -3.03,-7.61 -29.34,-13.26 -51.48,-2.07 -52.45,-1.64 -2.84,1.49 -3.98,5.03 -2.48,7.86 0.78,1.66 2.26,2.72 3.89,3.08z"/>
        </g>
       </g>
      </g>
      <g>
       <path class="fil8" d="M7320 2688.77c17.82,27.81 -21.35,85.7 -87.49,129.29 -66.14,43.6 -134.21,56.41 -152.02,28.59 -17.82,-27.81 21.36,-85.7 87.49,-129.3 66.14,-43.59 134.2,-56.4 152.02,-28.58z"/>
      </g>
      <g>
       <g>
        <path class="fil6" d="M7740.76 3609.75l199.04 -43.72c-192.75,-434.74 -524.57,-778.07 -609.39,-853.4 -12.48,-11.07 -29.43,-15.42 -45.72,-11.83 -24.87,5.45 -63.26,18.42 -101.29,49.14 -37.03,29.92 -61.34,55.22 -75.99,72.34 -10.7,12.53 -9.67,31.24 2.5,42.34 89.09,81.28 464.37,369.68 630.85,745.13z"/>
       </g>
      </g>
      <g>
       <path class="fil8" d="M7472.8 3834.55c9.1,41.23 -188.68,127.83 -474.62,189.26 -285.95,61.43 -523.54,152.3 -532.63,111.08 -9.1,-41.22 197.73,-205.82 483.67,-267.24 285.94,-61.43 514.48,-74.31 523.58,-33.1z"/>
      </g>
      <g>
       <path class="fil8" d="M6879.53 5993.93c0,0 -2.07,82.27 -57.73,105.47 -55.66,23.21 -216.95,44.15 -156.68,97.04 34.58,30.35 197.55,10.74 243.56,10.73 46.02,0 89.22,20.05 123.41,-10.74 37.62,-33.89 0,-202.5 0,-202.5 0,0 -39.71,20.68 -75.42,19.76 -51.45,-1.33 -77.14,-19.76 -77.14,-19.76z"/>
      </g>
      <g>
       <path class="fil8" d="M7795.88 5938.71c0,0 42.24,70.62 7.6,120 -34.61,49.38 -159.72,153.31 -80.5,165.78 45.45,7.15 172.68,-96.56 211.56,-121.17 38.88,-24.6 86.11,-30.75 98.54,-75.06 13.67,-48.75 -108.29,-171.12 -108.29,-171.12 0,0 -22.49,38.71 -53.16,57.02 -44.2,26.39 -75.75,24.55 -75.75,24.55z"/>
      </g>
      <g>
       <path class="fil1" d="M6485.58 4134.87c14.27,157.38 38.61,360.78 79.85,608.81 79.35,476.91 173.04,957.46 218.93,1187.83 16.48,82.44 85.77,142.67 167.93,145.94l44.15 1.76c88.78,3.59 160.9,-72.68 154.42,-163.41l-103.36 -1444.61 -8.18 -114 -19.82 -370.35c-68.28,21.88 149.97,-79.89 103.38,-33.24l100.12 -87.94c0,0 -574.83,86.37 -737.42,269.21z"/>
      </g>
      <g>
       <path class="fil1" d="M6835.98 3988.75l211.52 482.44 622.92 1391.34c35.02,79.91 115.88,128.32 200.95,120.28l37.09 -3.53c87.53,-8.29 145.25,-96.51 119.53,-182.65l-530 -1757.77c-4.9,-14.4 -31.18,-121.73 -54.7,-192.77 0,0 -210.7,0.07 -405.29,62.45 -68.29,21.89 -155.43,33.56 -202.02,80.21z"/>
      </g>
      <g>
       <path class="fil13" d="M7042.67 4473l9.62 -4 -61.23 -146.99c-38.11,-90.8 -107.41,-163.58 -195.13,-204.96l-4.46 9.43c85.4,40.27 152.88,111.15 189.98,199.54l61.22 146.98z"/>
      </g>
     </g>
    </g>
    <g>
     <g>
      <path class="fil8" d="M5658.15 6223.04c0,0 -10.56,58.12 -23.19,55.85 -20.38,-3.64 -21.7,-56.44 -21.7,-56.44l44.89 0.59z"/>
     </g>
     <g>
      <path class="fil3" d="M5683.71 2331.68c0,-2.56 0.31,-5.15 0.93,-7.75 4.28,-17.66 22.04,-28.5 39.7,-24.24l133.82 32.37c0.87,0.21 1.74,0.45 2.59,0.74 40.14,13.27 66.64,52.01 64.4,94.24l-60.76 1156.77c-0.95,18.14 -16.43,32.06 -34.57,31.12 -18.14,-0.96 -32.21,-16.49 -31.11,-34.57l60.76 -1156.77c0.71,-12.36 -6.84,-23.69 -18.34,-27.98l-132.26 -31.99c-15.04,-3.64 -25.16,-17.1 -25.16,-31.94z"/>
     </g>
     <g>
      <path class="fil3" d="M5464.91 5887.7l73.92 -3679.97c0.82,-35.08 29.74,-62.96 64.83,-62.49l86.42 1.15c34.83,0.46 62.9,28.71 63.14,63.55l20.82 3675.29 -309.13 2.47z"/>
     </g>
     <g>
      <path class="fil8" d="M5697.14 2146.48l-11.97 -229.93c-1,-19.13 -16.67,-34.21 -35.83,-34.47l-16.05 -0.21c-20.07,-0.26 -36.57,15.79 -36.83,35.87l-3.02 227.36 103.7 1.38z"/>
     </g>
     <g>
      <path class="fil8" d="M5756.84 2734.38c0,0 -94.17,-38.39 -230.32,-3.07l-5.51 234.42c0,0 127.24,-59.04 237.45,3.15l-1.62 -234.5z"/>
     </g>
     <g>
      <path class="fil14" d="M5657.9 6223.04l-41.05 -0.55c-11.44,-0.15 -21.74,-6.99 -26.31,-17.49l-117.84 -270.42c-17.24,-39.57 -5.66,-86.28 28.98,-112.02 25.32,-18.81 62.29,-33.17 115.06,-28.39 67.51,6.12 106.91,22.95 129.9,40.98 24.37,19.11 33.69,51.75 24.12,81.21l-95.7 294.39c-2.42,7.41 -9.37,12.39 -17.16,12.29z"/>
     </g>
     <g>
      <path class="fil8" d="M5582.23 2607.36c0,-0.03 0,-0.05 0,-0.08l5.2 -391.23c0.04,-2.79 2.33,-5.02 5.13,-4.98 2.77,0.03 4.99,2.3 4.99,5.05 0,0.03 0,0.05 0,0.07l-5.2 391.23c-0.04,2.79 -2.34,5.03 -5.13,4.98 -2.77,-0.03 -4.99,-2.29 -4.99,-5.04z"/>
      <g>
       <g>
        <path class="fil6" d="M5484.99 2643.21c0,0 -5.55,-56.77 46.31,-61.46 66.06,-5.98 136.31,44.58 94.5,48.94 -37.07,3.87 -73.24,2.09 -73.24,2.09 0,0 109.66,14.84 95.78,41.85 -13.88,27.02 -104.11,13.39 -104.11,13.39 0,0 103.81,29.61 82.43,50.89 -21.38,21.27 -100.51,7.31 -100.51,7.31 0,0 112.41,19.07 87.01,43.2 -25.41,24.13 -72.39,3.21 -102.37,-1.65 -28.34,-4.6 -34.54,-24.35 -28.16,-51.36 0,0 -9.28,-30.59 -0.64,-47.19 3.3,-6.36 -2,-14.07 -1.8,-19.12 0.41,-9.66 4.8,-26.89 4.8,-26.89z"/>
       </g>
      </g>
     </g>
     <g>
      <path class="fil8" d="M5541.29 5688.24c0,-0.01 0,-0.04 0.01,-0.06l35.15 -2645.83c0.03,-2.79 2.34,-5.03 5.13,-4.99 2.77,0.04 4.99,2.29 4.99,5.06 0,0.02 0,0.04 0,0.07l-35.16 2645.82c-0.03,2.79 -2.33,5.03 -5.13,4.99 -2.76,-0.03 -4.99,-2.29 -4.99,-5.06z"/>
     </g>
    </g>
   </g>
   <g>
    <g>
     <path class="fil8" d="M1047.86 2089.89c0,0 -109.8,-39.03 -209.16,47.09 -99.35,86.12 16.37,190.33 -158.62,214.64 -126.23,17.54 -277.19,64.52 -222.29,186.43 54.91,121.91 -99.34,44.09 -213.81,147.35 -114.47,103.25 -62.1,353.42 138.17,326.55 200.26,-26.86 127.91,130.96 371.16,182.17 243.24,51.2 248.76,-571.88 248.76,-571.88l45.79 -532.35z"/>
    </g>
    <g>
     <path class="fil9" d="M584.2 2956.21c0,0 -173.81,-28.48 -221.89,140.65 -48.08,169.13 45.79,513.99 160.96,545.93 115.17,31.94 185.72,-73.96 185.72,-73.96l-124.79 -612.62z"/>
    </g>
    <g>
     <g>
      <path class="fil6" d="M1771.76 2819.89c104.98,-78.38 186.41,-201.35 242.28,-366.02 42.2,-124.36 53.99,-229.1 54.47,-233.49l-243.43 -32.29 121.72 16.15 -121.69 -16.4c-10.22,89.93 -68.53,344.44 -213.97,441.39 -66.05,44 -190.04,97.71 -287.58,69.72l-33.11 237.98c166.03,47.65 335.02,-18.3 459.83,-101.84 7.26,-4.86 14.43,-9.94 21.48,-15.2z"/>
     </g>
    </g>
    <g>
     <path class="fil6" d="M2059.02 2131.09c13.86,2.09 26.91,-7.55 28.99,-21.42l28.99 -192.93c2.08,-13.87 -7.56,-26.91 -21.42,-29 -13.87,-2.08 -26.92,7.56 -29,21.42l-28.98 192.94c-2.09,13.86 7.55,26.91 21.42,28.99z"/>
    </g>
    <g>
     <path class="fil6" d="M1994.82 2121.25l0 0c13.9,2.09 26.97,-7.57 29.06,-21.46l32.4 -215.66c2.08,-13.9 -7.58,-26.97 -21.47,-29.06 -13.89,-2.09 -26.97,7.58 -29.06,21.47l-32.39 215.66c-2.09,13.89 7.57,26.97 21.46,29.05z"/>
    </g>
    <g>
     <path class="fil6" d="M1930.15 2111.54c13.9,2.09 26.97,-7.58 29.06,-21.47l36.23 -241.18c2.09,-13.9 -7.57,-26.97 -21.46,-29.06 -13.9,-2.09 -26.97,7.58 -29.06,21.47l-36.23 241.18c-2.09,13.9 7.57,26.97 21.46,29.06z"/>
    </g>
    <g>
     <path class="fil6" d="M1896.24 2233.11l3.22 -1.86c15.99,-9.22 21.54,-29.85 12.32,-45.85l-79.98 -138.71c-9.22,-16 -29.86,-21.54 -45.85,-12.32l-3.22 1.86c-16,9.22 -21.55,29.86 -12.32,45.86l79.97 138.71c9.23,15.99 29.86,21.53 45.86,12.31z"/>
    </g>
    <g>
     <path class="fil6" d="M1865.48 2101.83c13.9,2.08 26.97,-7.58 29.06,-21.47l29.04 -193.34c2.09,-13.89 -7.57,-26.96 -21.47,-29.05 -13.89,-2.09 -26.96,7.57 -29.05,21.47l-29.04 193.33c-2.09,13.89 7.57,26.97 21.46,29.06z"/>
    </g>
    <g>
     <path class="fil6" d="M2069.02 2220.46c0,0 36.5,-152.6 19.82,-184.4 -16.67,-31.79 -199.2,-58.35 -222.01,-25.22 -22.81,33.13 -41.7,177.02 -41.7,177.02l243.89 32.6z"/>
    </g>
    <g>
     <path class="fil8" d="M1280.04 2274.53c0,0 14.67,71.62 84.8,123.1 70.14,51.49 47.84,138.85 -18.52,135.93 -66.37,-2.92 -29.12,173.62 -169.36,142.51 -86.8,-19.26 103.08,-401.54 103.08,-401.54z"/>
    </g>
    <g>
     <path class="fil9" d="M1274.34 5908.07c0,0 2.03,80.76 56.67,103.54 54.64,22.78 212.97,43.34 153.81,95.26 -33.95,29.79 -193.93,10.54 -239.1,10.54 -45.17,0 -87.58,19.68 -121.15,-10.55 -36.92,-33.26 0.01,-198.79 0.01,-198.79 0,0 38.97,20.31 74.03,19.39 50.51,-1.3 75.73,-19.39 75.73,-19.39z"/>
    </g>
    <g>
     <path class="fil9" d="M646.79 5908.06c0,0 2.03,80.76 56.67,103.53 54.65,22.78 212.98,43.34 153.81,95.26 -33.95,29.8 -193.93,10.54 -239.1,10.54 -45.17,0 -87.58,19.69 -121.15,-10.54 -36.92,-33.27 0.01,-198.8 0.01,-198.8 0,0 38.98,20.31 74.03,19.4 50.52,-1.31 75.73,-19.39 75.73,-19.39z"/>
    </g>
    <g>
     <path class="fil7" d="M1680.48 3694.24c0,0 10.11,338.04 -97.79,986.51 -77.89,468.14 -169.84,939.89 -214.95,1166.05 -16.14,80.9 -84.18,140.05 -164.82,143.28l-43.33 1.74c-87.19,3.5 -157.95,-71.4 -151.58,-160.44l109.46 -1530.07 26.98 -503.6 536.03 -103.47z"/>
    </g>
    <g>
     <path class="fil9" d="M693.54 3991.72c4.98,41.15 237.62,36.15 522.45,0.1 284.84,-36.05 506.55,-97.76 501.57,-138.91 -4.97,-41.13 -234.75,-46.14 -519.58,-10.09 -284.84,36.06 -509.41,107.76 -504.44,148.9z"/>
    </g>
    <g>
     <path class="fil7" d="M1353.47 3935.69l-608.11 1953.44c-25.46,81.77 -99.07,137.8 -182.93,139.24l-36.55 0.62c-86.3,1.47 -152.27,-78.32 -136.54,-165.16l332.66 -1835.51c4.83,-21.82 20.93,-39.16 41.97,-45.24 114.06,-32.89 600.69,-128.18 589.5,-47.39z"/>
    </g>
    <g>
     <path class="fil1" d="M788.64 2867.05c0,0 80.92,-227.64 369.14,-217.29 288.23,10.36 505.86,389.11 559.78,1203.15 0,0 -471.97,-103.48 -1024.86,137.95 0,0 -197.94,-738.98 95.94,-1123.81z"/>
    </g>
    <g>
     <path class="fil1" d="M1512.73 2924.81c-8.43,4.27 -17.69,7.38 -27.96,9.27 -84.54,15.31 -322.02,30.45 -495.77,39.99 -31.84,1.72 -61.52,3.28 -87.76,4.6 -66.62,3.39 -110.84,5.38 -110.84,5.38l-59.19 -26.23 -186.67 -82.88c0,0 48.6,-102.85 199.65,-169.25l0.06 -0.06c42.16,-18.53 92.25,-34.22 151.55,-44.04 44.22,-7.33 93.48,-11.38 148.29,-10.93 42.16,0.33 70.95,-3.94 113.72,-0.89 1.44,0.11 2.72,0.17 3.88,0.17 19.97,0 7.55,-13.76 30.23,-12.43 206.92,11.93 394.59,6.93 394.59,6.93 0,0 32.29,226.84 -73.78,280.37z"/>
    </g>
    <g>
     <path class="fil13" d="M1081.68 4808.8l-9.72 -3.2 130.78 -397.56c30.2,-91.81 92.33,-168.44 174.96,-215.77l5.08 8.88c-80.43,46.08 -140.91,120.68 -170.32,210.09l-130.78 397.56z"/>
    </g>
    <g>
     <path class="fil7" d="M922.56 3947.13c0,0 568.48,-108.59 752.79,-57.37l-88.38 130.99 -328.58 18.59 -335.83 -92.21z"/>
    </g>
    <g>
     <g>
      <path class="fil8" d="M1381.78 2524.65l6.02 -7.16c0.32,-0.35 32.35,-34.87 29.09,-73 -1.67,-19.56 -12.31,-36.86 -31.61,-51.4 -9.12,-6.86 -17.45,-13.03 -25.08,-18.68 -52.56,-38.91 -72.23,-53.47 -82.12,-99.46l3.92 -0.84c9.57,44.52 28.91,58.83 80.59,97.08 7.63,5.66 15.97,11.83 25.09,18.7 20.27,15.27 31.44,33.53 33.21,54.28 3.4,39.93 -37.74,79.03 -39.11,80.48z"/>
     </g>
    </g>
    <g>
     <path class="fil6" d="M1082.31 2576.13l47.39 -122.84 11.8 12.79 78.69 -146.33 -25.07 156.57 -15.06 93.97 -4.24 26.47c-7.28,33.05 38.54,57.6 38.54,57.6 10,19.95 16.07,51.13 -33.33,62.24 -58.05,13.06 -150.76,-38.81 -178.96,-94.36 0,0 65.44,-18.6 80.24,-46.11z"/>
    </g>
    <g>
     <path class="fil9" d="M1128.4 2467.57c-0.05,0.87 -6.21,7.32 -5.87,8.13 13.48,32.21 63.4,57.97 63.4,57.97l9.19 -57.35c-16.08,-7.53 -39.19,-15.85 -53.62,-10.24 -7.55,2.94 -12.5,-11.12 -13.1,1.49z"/>
    </g>
    <g>
     <g>
      <path class="fil6" d="M1296.93 2253.95c-38.44,-93.67 -131.15,-144.34 -207.07,-113.18 -75.92,31.16 -106.3,132.35 -67.86,226.01 38.44,93.66 131.15,144.33 207.07,113.17 75.92,-31.15 106.3,-132.34 67.86,-226z"/>
     </g>
     <g>
      <path class="fil9" d="M1278.53 2389.72c0,0 -46.51,20.36 -100.23,23.13 0,0 15.09,47.89 67.22,30.12 30.32,-10.34 33.01,-53.25 33.01,-53.25z"/>
     </g>
     <g>
      <path class="fil2" d="M1278.53 2389.72c0,0 -7.49,14.09 -34.05,24.86 -26.55,10.76 -66.18,-1.73 -66.18,-1.73 0,0 62.96,-7.67 100.23,-23.13z"/>
     </g>
     <g>
      <g>
       <path class="fil15" d="M1173.43 2306.54c0.82,-0.62 1.34,-1.61 1.32,-2.71 -0.01,-1.87 -1.53,-3.36 -3.39,-3.35 -1.1,0.01 -26.59,-2.18 -36.78,25.63 -0.64,1.76 0.18,3.71 1.93,4.38 1.74,0.68 3.33,-0.37 4.37,-1.92 10.4,-15.55 29.62,-21.32 30.53,-21.33 0.76,-0.01 1.46,-0.27 2.02,-0.7z"/>
      </g>
     </g>
     <g>
      <path class="fil15" d="M1162.79 2351.06c2.83,7.55 9.56,12.02 15.04,9.97 5.49,-2.05 7.64,-9.84 4.82,-17.39 -2.83,-7.56 -9.56,-12.02 -15.04,-9.97 -5.48,2.04 -7.64,9.83 -4.82,17.39z"/>
     </g>
     <g>
      <g>
       <path class="fil15" d="M1291.73 2277.04c0.99,-0.27 1.85,-0.99 2.25,-2.01 0.7,-1.73 -0.13,-3.69 -1.86,-4.39 -1.02,-0.41 -23.75,-12.14 -43.77,9.7 -1.26,1.37 -1.24,3.49 0.11,4.78 1.36,1.28 3.23,0.92 4.79,-0.12 15.53,-10.41 35.5,-8.42 36.34,-8.09 0.71,0.28 1.45,0.31 2.14,0.13z"/>
      </g>
     </g>
     <g>
      <path class="fil15" d="M1264.94 2314.14c-0.27,8.06 4.25,14.76 10.11,14.95 5.84,0.19 10.8,-6.18 11.07,-14.25 0.27,-8.06 -4.26,-14.75 -10.11,-14.94 -5.85,-0.2 -10.81,6.18 -11.07,14.24z"/>
     </g>
    </g>
    <g>
     <g>
      <path class="fil8" d="M541.03 2391.85l-1.41 -4.78c97.35,-28.72 207.69,-61.28 219.37,-189.73 4.35,-47.88 45.75,-85.23 119.72,-108 55.4,-17.05 122.66,-18.54 123.21,-18.57l-12.17 3.43c-2.16,0.11 -222.84,12.2 -225.8,123.59 -3.98,149.88 -124.05,164.89 -222.92,194.06z"/>
     </g>
    </g>
    <g>
     <path class="fil8" d="M200.68 2893.69c-42.97,-54.09 -52.95,-126.36 -26.06,-188.62 21.79,-50.44 64.39,-83.04 113.97,-87.21 68.51,-5.77 133.38,-14.37 144.06,-38 3.85,-8.54 0.95,-19.13 -8.88,-32.39 -8.19,-11.04 -11.22,-23.42 -8.98,-36.79 6.67,-40.01 57.65,-75.43 59.82,-76.92l2.82 4.11c-0.51,0.36 -51.41,35.73 -57.73,73.64 -2,11.98 0.72,23.08 8.07,32.99 11.01,14.84 14.09,27.08 9.42,37.41 -11.12,24.62 -64.94,33.91 -148.18,40.92 -47.71,4.01 -88.76,35.5 -109.81,84.21 -26.16,60.57 -16.44,130.9 25.39,183.55l-3.91 3.1z"/>
    </g>
    <g>
     <g>
      <path class="fil9" d="M1633.54 3037.42c2.04,-20.5 -12.9,-38.78 -33.4,-40.85l-477.86 -48.33c-19.46,-1.97 -37.15,11.42 -40.53,30.68l-117.99 671.45c-3.57,20.32 10.01,39.68 30.33,43.24l522.92 69.18c21.38,3.74 43.05,11.17 45.2,-10.43l71.33 -714.94z"/>
     </g>
     <g>
      <path class="fil16" d="M1724.97 3045.58c2.04,-20.5 -12.9,-38.78 -33.4,-40.85l-477.86 -48.33c-19.47,-1.97 -37.15,11.42 -40.53,30.69l-117.99 671.44c-3.57,20.32 10.01,39.68 30.34,43.24l524.52 91.82c21.38,3.75 41.44,-11.47 43.59,-33.06l71.33 -714.95z"/>
     </g>
     <g>
      <g>
       <path class="fil17" d="M1282.04 3066.15c0,0 312.63,33.94 319.14,39.57 6.5,5.65 2.91,22.44 -20.06,22 -22.97,-0.44 -297.05,-40.48 -307.02,-45.37 -9.97,-4.89 -7.74,-17.92 7.94,-16.2z"/>
      </g>
      <g>
       <path class="fil17" d="M1326.55 3036.01c0,0 201.07,21.82 205.26,25.45 4.18,3.63 1.87,14.43 -12.9,14.15 -14.78,-0.29 -191.05,-26.04 -197.47,-29.18 -6.41,-3.14 -4.97,-11.53 5.11,-10.42z"/>
      </g>
     </g>
    </g>
    <g>
     <path class="fil9" d="M544.54 2874.93c-9,35.41 45.05,58.27 148.72,86.49 103.67,28.21 147.06,35.73 156.05,0.32 8.99,-35.4 -32.3,-74.31 -135.73,-103.4 -75.9,-21.34 -160.05,-18.81 -169.04,16.59z"/>
    </g>
    <g>
     <path class="fil5" d="M1950.34 2219.07c-0.26,0 -0.52,-0.02 -0.78,-0.08 -1.95,-0.43 -3.18,-2.35 -2.76,-4.3 0.32,-1.44 7.33,-35.39 -21.42,-52.63 -31.62,-18.95 -61.48,-56.41 -62.73,-57.99 -1.24,-1.57 -0.98,-3.84 0.59,-5.08 1.56,-1.24 3.83,-0.97 5.07,0.59 0.31,0.38 30.31,38.01 60.78,56.28 33.27,19.95 24.86,59.98 24.77,60.38 -0.37,1.69 -1.86,2.83 -3.52,2.83z"/>
    </g>
    <g>
     <path class="fil9" d="M830.4 3413.92l-27.07 -38.72c120.88,-138.62 128.87,-279.81 97.91,-396.53 -17.97,-67.78 -49.09,-127.25 -78.88,-173.3 -40.28,-62.12 -78.17,-99.68 -78.17,-99.68l0.06 -0.06c42.16,-18.53 92.25,-34.22 151.55,-44.04 6.5,13.7 13.54,30.4 21.08,50.7 19.31,51.7 41.94,126.76 66.74,235.77 2,8.82 3.83,17.52 5.38,26.01 59.75,318.97 -158.6,439.85 -158.6,439.85z"/>
    </g>
    <g>
     <path class="fil6" d="M1471.43 3470.46c0.16,-39.22 -103.25,-17.04 -103.25,-17.04 -5.32,0.78 -22.02,2.65 -23.95,-2.37l-0.06 -0.15c-1.32,-3.4 37.08,-8.68 40.67,-9.32 26.41,-4.66 111.88,-20.67 93.45,-49.52 -19.67,-30.81 -234.5,8.6 -234.5,8.6 -0.21,0.03 -0.34,-0.22 -0.2,-0.38 0,0 20.67,-33.04 30.93,-40.65 24.14,-17.86 27.11,-34.93 18.33,-47.71 -2.62,-3.83 -7.07,-5.96 -11.69,-5.53 -9.6,0.9 -28.81,5.59 -54.85,26.23 -37.82,29.99 -114.16,66.74 -146.38,125.91 -9.11,16.73 -77.42,146.97 20.27,200.82 45.05,24.83 114.59,33.54 209.48,11.36l0.02 -0.01c0,0 154.97,-34.66 150.53,-70.05 -2.12,-16.88 -67.79,-3.72 -67.79,-3.72 -4.17,0.61 -20.82,3.22 -20.86,-1 0,-0.05 0,-0.1 0,-0.15 -0.04,-4.37 12.24,-6.85 16.56,-7.48 0,0 80.07,-21.73 80,-43.98 -0.12,-39.66 -55.55,-29.24 -81.55,-23.36 -5.23,1.18 -22.09,6.04 -23.07,0.76 -0.01,-0.05 -0.02,-0.1 -0.03,-0.15 -0.63,-3.38 5.48,-7.06 14.24,-8.54 0,0 93.59,-15.75 93.7,-42.57z"/>
    </g>
    <g>
     <g>
      <path class="fil6" d="M1097.91 3439.37c-104.08,22.93 -214.38,10.65 -258.67,-63.35 -61.5,-102.75 -47.03,-252.86 -23.38,-355.79 12.1,-52.67 -0.3,-94.72 -63.92,-129.58 -26.42,-14.48 -50.02,-22.57 -117.9,-24.95 -32.79,-1.15 -62.42,5.7 -70.59,32.04 -12.8,41.23 -20.66,74.08 -31.11,150.68 -24.79,181.93 1.48,344.31 75.96,469.58 91.42,153.76 358.13,227.27 603.62,165.42 25.85,-6.51 -89.87,-249.37 -114.01,-244.05z"/>
     </g>
    </g>
    <g>
     <path class="fil18" d="M678.55 3475.14c-2.46,0 -5,-0.23 -7.6,-0.68 -17.06,-3.02 -34.7,-15.73 -47.19,-34.03 -21.04,-30.81 -21.29,-66.59 -0.56,-81.46 7.62,-5.46 17.19,-7.37 27.67,-5.52 17.06,3 34.7,15.73 47.19,34.02 21.04,30.81 21.29,66.58 0.56,81.45 -5.73,4.12 -12.57,6.22 -20.07,6.22zm-35.22 -110.11l0 0c-4.14,0 -8.81,0.91 -12.99,3.9 -14.76,10.59 -13.14,40.17 3.54,64.59 10.67,15.62 25.32,26.41 39.2,28.86 4.99,0.88 12.24,1.01 18.4,-3.41 14.76,-10.59 13.14,-40.17 -3.54,-64.59 -10.67,-15.63 -25.32,-26.41 -39.2,-28.86 -1.61,-0.29 -3.45,-0.49 -5.41,-0.49z"/>
    </g>
    <g>
     <path class="fil8" d="M1194.05 2151.12c0,0 87.06,91.38 -69.11,101.45 -80,5.16 -103.04,120.35 -52.36,148.98 87.3,49.32 151.58,366.36 -145.76,294.01 -73.51,-17.88 -46.26,-87.06 -199.88,-79.92 -79.76,3.71 131.21,-53.34 148.01,-152.09 17.73,-104.26 -152.55,-341.68 92.85,-389.12 32.35,-6.25 141.37,-7.62 164.76,-5.12 181.98,19.52 156.54,159.89 156.54,159.89 0,0 -35,-59.27 -95.05,-78.08z"/>
    </g>
    <g>
     <path class="fil6" d="M1036.74 2379.67c19.93,12.01 43.26,8.47 52.1,-7.9 8.83,-16.37 -0.16,-39.36 -20.1,-51.37 -19.94,-12 -43.26,-8.46 -52.1,7.9 -8.84,16.37 0.16,39.37 20.1,51.37z"/>
    </g>
    <g>
     <path class="fil2" d="M963.39 2623.9c-43.77,0 -92.65,-22.23 -142.69,-66.22 -21.55,-18.94 -44.9,-27.32 -69.39,-24.89 -52.15,5.17 -92.82,57.7 -93.22,58.22l-3.88 -2.96c1.7,-2.23 42.38,-54.74 96.62,-60.12 25.87,-2.57 50.48,6.21 73.09,26.08 85.63,75.27 167.5,85.55 224.64,28.2 35.05,-35.18 -5.58,-109.46 -41.43,-175 -23.31,-42.6 -45.32,-82.84 -44.9,-108.92 0.41,-25.58 9.69,-47.04 27.57,-63.81 26.62,-24.95 70.91,-37.26 124.75,-34.65 28.63,1.38 46.94,-3.94 54.49,-15.84 9.33,-14.72 -1.25,-35.01 -1.36,-35.21l4.31 -2.3c0.5,0.94 12.02,23.04 1.17,40.13 -8.55,13.49 -28.38,19.59 -58.85,18.1 -52.5,-2.55 -95.52,9.29 -121.17,33.34 -16.88,15.82 -25.64,36.11 -26.03,60.32 -0.4,24.79 21.32,64.48 44.3,106.5 36.67,67.04 78.24,143.02 40.61,180.79 -25.46,25.56 -55.59,38.23 -88.63,38.24z"/>
    </g>
   </g>
  </g>
 </g>
</svg>
