<?xml version="1.0" encoding="UTF-8"?>
<!DOCTYPE svg PUBLIC "-//W3C//DTD SVG 1.1//EN" "http://www.w3.org/Graphics/SVG/1.1/DTD/svg11.dtd">
<!-- Creator: CorelDRAW 2019 (64-Bit) -->
<svg xmlns="http://www.w3.org/2000/svg" xml:space="preserve" width="54.327mm" height="42.301mm" version="1.1" style="shape-rendering:geometricPrecision; text-rendering:geometricPrecision; image-rendering:optimizeQuality; fill-rule:evenodd; clip-rule:evenodd"
viewBox="0 0 5432.7 4230.1"
 xmlns:xlink="http://www.w3.org/1999/xlink"
 xmlns:xodm="http://www.corel.com/coreldraw/odm/2003">
 <defs>
  <style type="text/css">
   <![CDATA[
    .fil1 {fill:white}
    .fil2 {fill:#202427;fill-rule:nonzero}
    .fil0 {fill:#C8EF53;fill-rule:nonzero}
   ]]>
  </style>
 </defs>
 <g id="Capa_x0020_1">
  <metadata id="CorelCorpID_0Corel-Layer"/>
  <g id="_193159264">
   <g>
    <path class="fil0" d="M5079.59 2185.47c285.61,-79.48 355.8,-441.8 350.07,-735.44 -179.94,394.07 -857.04,309.51 -1145.25,333.1 -747.69,61.12 -867.26,741.74 -414.01,1040.4 -257.74,-322.62 -97.06,-586.48 251.8,-672.39 335.83,-82.7 635.48,124.03 957.39,34.33z"/>
    <path class="fil0" d="M4847.16 2621.16c199.98,-8.73 301.35,-236.31 342.35,-430.3 -178.41,231.73 -610.83,72.91 -803.96,44.49 -501.05,-73.81 -683.46,355.59 -430.91,621.11 -120.3,-251.44 25.57,-400.5 268.11,-403.82 233.47,-3.2 399.01,178.44 624.41,168.52z"/>
    <path class="fil0" d="M4543.24 2850.37c111.68,22.88 199.24,-88.79 248.78,-190.29 -130.69,103.3 -347.58,-44.4 -450.34,-86.87 -266.6,-110.23 -426.9,101.7 -324.18,283.43 -31.6,-155.61 69.65,-217.73 204.11,-185.95 129.42,30.61 195.71,153.91 321.63,179.68z"/>
   </g>
   <g>
    <g>
     <path class="fil1" d="M1984.19 52.19l830.62 -47.32c76.27,-4.35 142.51,52.69 150.34,127.93l-22.07 185.45 -10.08 -176.89c-3.45,-60.53 -55.8,-107.24 -116.33,-103.79l-830.62 47.32c-60.53,3.45 -107.24,55.8 -103.79,116.33l51.61 905.96 -32.5 5.42 -51.81 -909.52c-4.47,-78.52 56.11,-146.42 134.63,-150.89zm1037.82 1075.76l26.25 460.8c4.47,78.52 -56.11,146.42 -134.63,150.9l-454.51 25.89 10.01 -33.38 442.64 -25.21c60.54,-3.45 107.24,-55.8 103.79,-116.33l-27.76 -487.37 34.21 24.7z"/>
     <g>
      <path class="fil1" d="M2021.2 225.86c22.11,-1.26 41.04,15.63 42.3,37.73 1.26,22.1 -15.63,41.04 -37.73,42.3 -22.11,1.26 -41.04,-15.63 -42.3,-37.74 -1.26,-22.1 15.63,-41.03 37.73,-42.29z"/>
      <path class="fil1" d="M2121.05 221.52l688.4 -39.21c21.27,-1.21 39.66,15.19 40.87,36.46l0 0c1.21,21.27 -15.2,39.66 -36.46,40.87l-688.4 39.21c-21.27,1.22 -39.66,-15.19 -40.87,-36.46l0 0c-1.21,-21.27 15.2,-39.65 36.46,-40.87z"/>
      <path class="fil1" d="M2029.42 369.97c22.1,-1.26 41.03,15.64 42.29,37.74 1.26,22.1 -15.63,41.03 -37.73,42.29 -22.1,1.26 -41.04,-15.63 -42.3,-37.73 -1.26,-22.1 15.64,-41.04 37.74,-42.3z"/>
      <path class="fil1" d="M2129.26 365.64l688.4 -39.22c21.27,-1.21 39.66,15.2 40.87,36.46l0 0c1.21,21.27 -15.19,39.66 -36.46,40.87l-688.4 39.22c-21.27,1.21 -39.66,-15.2 -40.87,-36.46l0 -0.01c-1.21,-21.26 15.2,-39.65 36.46,-40.86z"/>
     </g>
     <g>
      <path class="fil1" d="M2037.55 512.73c22.1,-1.26 41.04,15.64 42.3,37.74 1.26,22.1 -15.64,41.03 -37.74,42.29 -22.1,1.26 -41.04,-15.63 -42.3,-37.73 -1.26,-22.1 15.64,-41.04 37.74,-42.3z"/>
      <path class="fil1" d="M2137.4 508.4l688.39 -39.22c21.27,-1.21 39.66,15.2 40.87,36.46l0 0.01c1.21,21.26 -15.19,39.65 -36.46,40.86l-688.4 39.22c-21.27,1.21 -39.65,-15.2 -40.87,-36.46l0 0c-1.21,-21.27 15.2,-39.66 36.47,-40.87z"/>
      <path class="fil1" d="M2045.76 656.84c22.1,-1.25 41.04,15.64 42.3,37.74 1.25,22.1 -15.64,41.04 -37.74,42.3 -22.1,1.26 -41.04,-15.64 -42.3,-37.74 -1.26,-22.1 15.64,-41.04 37.74,-42.3z"/>
      <path class="fil1" d="M2145.6 652.51l688.4 -39.21c21.27,-1.21 39.66,15.19 40.87,36.46l0 0c1.21,21.27 -15.19,39.65 -36.46,40.87l-688.4 39.21c-21.27,1.21 -39.65,-15.19 -40.87,-36.46l0 0c-1.21,-21.27 15.2,-39.66 36.46,-40.87z"/>
      <path class="fil1" d="M2053.89 799.61c22.1,-1.26 41.04,15.63 42.3,37.73 1.26,22.11 -15.64,41.04 -37.74,42.3 -22.1,1.26 -41.04,-15.64 -42.29,-37.74 -1.26,-22.1 15.63,-41.03 37.73,-42.29z"/>
      <path class="fil1" d="M2153.74 795.27l688.4 -39.21c21.26,-1.21 39.65,15.19 40.86,36.46l0 0c1.21,21.27 -15.19,39.66 -36.46,40.87l-688.4 39.21c-21.26,1.22 -39.65,-15.19 -40.86,-36.46l0 0c-1.21,-21.26 15.19,-39.65 36.46,-40.87z"/>
     </g>
    </g>
    <g>
     <path class="fil1" d="M3160.16 33.85l1073.52 168.92c101.48,15.97 171.44,112.07 155.47,213.55l-294.74 1873.06c-15.97,101.48 -112.07,171.44 -213.55,155.47l-1073.51 -168.93c-101.48,-15.97 -171.45,-112.06 -155.48,-213.54l294.75 -1873.06c15.97,-101.48 112.06,-171.44 213.54,-155.47zm-6.65 42.26l1073.52 168.93c78.23,12.31 132.17,86.39 119.86,164.63l-294.75 1873.06c-12.31,78.23 -86.39,132.17 -164.62,119.86l-1073.52 -168.93c-78.23,-12.31 -132.17,-86.39 -119.86,-164.63l294.75 -1873.06c12.31,-78.23 86.39,-132.17 164.62,-119.86z"/>
     <g>
      <circle class="fil1" transform="matrix(0.211321 0.0332536 -0.0332536 0.211321 3151.37 317.55)" r="244.74"/>
      <path class="fil1" d="M3296.88 289.19l872.23 137.25c32.41,5.11 55.18,31.62 50.84,59.22l0 -0.01c-4.34,27.6 -34.16,45.84 -66.57,40.74l-872.23 -137.26c-32.42,-5.1 -55.19,-31.61 -50.85,-59.2l0.01 -0.01c4.34,-27.59 34.15,-45.83 66.56,-40.73z"/>
      <circle class="fil1" transform="matrix(0.211321 0.0332536 -0.0332536 0.211321 3122.07 503.75)" r="244.74"/>
      <path class="fil1" d="M3267.58 475.49l872.23 137.25c32.41,5.11 55.18,31.62 50.84,59.22l0 -0.01c-4.34,27.6 -34.16,45.84 -66.57,40.74l-872.23 -137.26c-32.42,-5.1 -55.19,-31.61 -50.85,-59.2l0.01 -0.01c4.34,-27.59 34.15,-45.83 66.56,-40.73z"/>
     </g>
     <g>
      <circle class="fil1" transform="matrix(0.211321 0.0332536 -0.0332536 0.211321 3092.97 688.25)" r="244.74"/>
      <path class="fil1" d="M3238.58 659.99l872.23 137.25c32.41,5.11 55.18,31.62 50.84,59.22l0 -0.01c-4.34,27.6 -34.16,45.84 -66.57,40.74l-872.23 -137.26c-32.42,-5.1 -55.19,-31.61 -50.85,-59.2l0.01 -0.01c4.34,-27.59 34.15,-45.83 66.56,-40.73z"/>
      <circle class="fil1" transform="matrix(0.211321 0.0332536 -0.0332536 0.211321 3063.67 874.55)" r="244.74"/>
      <path class="fil1" d="M3209.18 846.19l872.23 137.25c32.41,5.11 55.18,31.62 50.84,59.22l0 -0.01c-4.34,27.6 -34.16,45.84 -66.57,40.74l-872.23 -137.26c-32.42,-5.1 -55.19,-31.61 -50.85,-59.2l0.01 -0.01c4.34,-27.59 34.15,-45.83 66.56,-40.73z"/>
      <circle class="fil1" transform="matrix(0.211321 0.0332536 -0.0332536 0.211321 3034.67 1059.05)" r="244.74"/>
      <path class="fil1" d="M3180.18 1030.69l872.23 137.25c32.41,5.11 55.18,31.62 50.84,59.22l0 -0.01c-4.34,27.6 -34.16,45.84 -66.57,40.74l-872.23 -137.26c-32.42,-5.1 -55.19,-31.61 -50.85,-59.2l0.01 -0.01c4.34,-27.59 34.15,-45.83 66.56,-40.73z"/>
     </g>
    </g>
    <path class="fil0" d="M1516.7 3751.15l39.4 -384.84 186.48 -1821.33 47.84 -467.16 191.6 36.5 0 830.28 54.74 -839.4c97.33,-66.91 194.65,-133.82 291.97,-200.73l-127.73 1843.04 228.09 -1843.04 0 0c589.03,19.05 1482.12,237.73 1897.8,593.06l-492.7 2545.59 -1770.06 -474.45 -547.43 182.48zm2280.99 364.96l0 0 -319.34 118.61 -1961.65 -410.58 547.43 -173.35 1733.56 465.32z"/>
   </g>
   <path class="fil2" d="M2926.35 1810.23c80.56,14.62 148.09,43.9 202.82,87.66 54.52,43.57 92.88,97.58 115.06,161.48 22.01,64.07 26.33,133.06 12.77,207.15 -13.37,73.34 -41.76,136.46 -84.98,189.14 -43.4,52.87 -98.51,90.69 -165.36,113.44 -66.66,22.56 -140.45,26.73 -221,11.93l-321.1 -58.49 140.51 -770.98 321.28 58.67zm-123.08 551.27c54.5,9.98 100.4,2.87 137.72,-21 37.3,-23.85 61.05,-63.5 71.02,-118.74 10.17,-55.06 1.95,-100.4 -24.67,-136.03 -26.42,-35.63 -66.99,-58.45 -121.3,-68.25l-57.84 -10.51 -62.76 344 57.83 10.53z"/>
   <path id="_1" class="fil2" d="M3186.35 2258.33c13.91,-76.12 41.72,-141.25 83.46,-195.03 41.72,-53.97 94.26,-92.13 157.6,-114.86 63.33,-22.55 133.81,-26.69 211.58,-12.61 66.7,12.31 124.24,35.75 172.25,70.32 48.02,34.57 84.47,77.9 109.15,129.59 24.69,51.7 36.87,109.01 36.53,172.13l-254.77 -46.54c-6.82,-27.46 -19.88,-50.25 -38.63,-68.41 -18.76,-17.97 -42.09,-29.62 -69.61,-34.62 -40.65,-7.49 -75.65,1.96 -104.64,28.16 -29.18,26.21 -48.49,65.08 -57.94,116.63 -9.46,51.55 -5.12,94.71 13,129.47 17.94,34.77 47.41,55.8 88.06,63.29 27.53,4.99 53.35,2.42 77.27,-7.88 24.11,-10.11 44.12,-27.04 60.39,-50.2l254.78 46.35c-21.95,59.01 -53.75,108.49 -95.02,148.05 -41.45,39.76 -90.74,67.38 -147.84,82.88 -57.3,15.32 -119.28,17 -185.98,4.88 -77.6,-14.28 -142.18,-43.02 -193.58,-86.62 -51.21,-43.4 -86.99,-97.8 -106.96,-162.81 -19.98,-65.2 -23.01,-135.86 -9.1,-212.17z"/>
   <g>
    <path class="fil0" d="M478.48 1837.3c-339.34,-62.92 -457.82,-475.9 -481.23,-817 249,438.56 1025.53,271.19 1362.16,269.05 873.3,-5.66 1081.62,771.37 586.59,1164.1 265.86,-400.5 52.53,-690.03 -360.81,-753.95 -397.91,-61.53 -724.23,208.88 -1106.71,137.8z"/>
    <path class="fil0" d="M792.6 2318.75c-232.79,10.35 -373.63,-243.18 -441.04,-463.94 230.61,250.46 715.8,22.03 936.85,-30.7 573.48,-136.88 828.96,342.39 563.28,676.15 113.77,-303.89 -70.65,-461.82 -352.25,-440.84 -271.07,20.19 -444.44,247.77 -706.84,259.33z"/>
    <path class="fil0" d="M1168.51 2553.44c-127.17,37.97 -240.14,-82.56 -307.98,-195.19 162.12,106.41 398.52,-87.07 513.34,-146.84 297.87,-155.11 505.46,74.24 404.94,295.49 20.72,-183.68 -103.06,-245.36 -255.72,-194.74 -146.96,48.75 -211.2,198.51 -354.58,241.28z"/>
   </g>
  </g>
 </g>
</svg>
